# xmcd
#
# Track frame offsets: 
#        150
#        17369
#        31777
#        51775
#        63446
#        76120
#        92469
#        120136
#        135442
#        149467
#        165826
#        184565
#        199194
#        212633
#        229408
#
# Disc length: 3246 seconds
#
# Revision: 0
# Processed by: cddbd v1.5.2PL0 Copyright (c) Steve Scherf et al.
# Submitted via: ExactAudioCopy v0.95b4
#
DISCID=b00cac0f
DTITLE=E. Wilson and The Highway Call Band - That's the Way Love Is
DYEAR=2004
DGENRE=
TTITLE0=One Bottle or Ten
TTITLE1=Love'N Back In town
TTITLE2=That's The Way Love Is
TTITLE3=New Girl In town
TTITLE4=The Way You Walk
TTITLE5=You Ain't Seen Hard
TTITLE6=Bluebird Blues
TTITLE7=About the Way You Are
TTITLE8=Hey Little Mama
TTITLE9=Unknown fear
TTITLE10=I Love You
TTITLE11=My reply
TTITLE12=Amazed
TTITLE13=Good Enough
TTITLE14=That Door
EXTD=
EXTT0=
EXTT1=
EXTT2=
EXTT3=
EXTT4=
EXTT5=
EXTT6=
EXTT7=
EXTT8=
EXTT9=
EXTT10=
EXTT11=
EXTT12=
EXTT13=
EXTT14=
PLAYORDER=
